<?xml version="1.0" standalone="no"?>
<!DOCTYPE svg PUBLIC "-//W3C//DTD SVG 20010904//EN"
 "http://www.w3.org/TR/2001/REC-SVG-20010904/DTD/svg10.dtd">
<svg version="1.0" xmlns="http://www.w3.org/2000/svg"
 width="500.000000pt" height="500.000000pt" viewBox="0 0 500.000000 500.000000"
 preserveAspectRatio="xMidYMid meet">

<g transform="translate(0.000000,500.000000) scale(0.100000,-0.100000)"
fill="#000000" stroke="none">
<path d="M2375 4133 c-200 -24 -349 -68 -530 -158 -163 -80 -292 -173 -415
-295 -412 -412 -576 -1087 -395 -1626 176 -528 641 -937 1205 -1060 119 -27
418 -27 540 -1 469 100 872 413 1085 842 171 345 219 697 146 1072 -60 307
-199 571 -416 788 -245 244 -540 386 -900 430 -110 14 -246 17 -320 8z m365
-288 c261 -43 498 -170 690 -371 246 -257 361 -537 362 -875 0 -198 -29 -354
-97 -523 -171 -424 -582 -752 -1025 -817 -115 -16 -341 -6 -448 20 -361 90
-706 369 -875 706 -48 96 -94 239 -113 349 -24 136 -14 378 20 507 143 543
536 917 1055 1004 107 18 318 18 431 0z"/>
<path d="M2400 3759 c-136 -13 -273 -53 -395 -114 -106 -53 -245 -146 -245
-164 0 -5 105 -107 233 -226 127 -120 234 -222 235 -227 2 -4 -3 -8 -12 -8 -8
0 -27 -11 -42 -23 -26 -23 -27 -29 -27 -105 1 -45 0 -82 -2 -82 -4 0 -462 281
-546 335 -38 25 -76 45 -83 45 -19 0 -109 -188 -145 -303 -43 -139 -54 -235
-48 -395 10 -281 108 -517 300 -727 58 -63 66 -68 81 -56 10 8 131 148 269
310 l252 296 8 -55 c4 -30 19 -98 33 -150 l25 -95 -115 -280 c-82 -198 -112
-283 -105 -292 11 -12 129 -53 211 -72 79 -18 114 -14 137 15 27 34 26 53 -4
202 -14 68 -25 143 -25 167 0 24 -4 47 -10 50 -5 3 -9 23 -9 43 1 22 -20 93
-51 177 -37 101 -53 160 -57 210 -12 155 64 276 163 263 l29 -4 -30 -13 c-94
-39 -131 -107 -123 -223 5 -63 13 -86 72 -202 36 -72 66 -139 66 -149 0 -10 7
-29 16 -43 12 -18 14 -31 7 -46 -5 -11 -6 -52 -2 -92 4 -39 10 -115 14 -168 4
-54 11 -98 16 -98 5 0 9 156 9 373 l0 372 -51 -52 c-28 -29 -52 -53 -55 -53
-2 0 -4 8 -4 18 0 10 22 41 50 69 27 28 46 53 43 57 -14 13 -41 5 -64 -20 -34
-37 -60 -49 -69 -34 -5 9 13 32 51 68 32 30 59 58 59 62 0 4 -22 5 -49 2 -44
-4 -50 -2 -56 19 -11 35 19 53 57 33 63 -33 60 -48 59 379 l-1 387 37 0 38 0
-3 -92 c-2 -51 -1 -138 3 -193 8 -116 0 -109 121 -109 81 -1 91 -17 23 -38
-32 -9 -50 -8 -94 4 l-55 15 -1 -26 c-1 -19 0 -283 1 -344 0 -4 13 -1 30 8 33
17 76 20 85 5 11 -17 -5 -48 -26 -53 -12 -3 -33 -1 -46 4 -45 17 -38 0 27 -66
50 -51 60 -66 47 -70 -10 -4 -33 7 -63 29 -65 50 -80 32 -25 -30 22 -26 41
-53 41 -60 0 -28 -26 -13 -53 31 -16 25 -31 45 -33 45 -2 0 -3 -156 -3 -347 2
-349 2 -353 29 -153 6 41 15 79 19 83 6 6 5 17 -1 27 -17 27 10 112 98 310 48
108 57 195 25 257 -21 43 -67 87 -101 98 -32 10 -23 25 15 25 60 0 125 -83
144 -185 15 -78 1 -144 -61 -304 -23 -58 -41 -119 -41 -135 0 -90 -18 -251
-36 -326 -29 -118 -28 -155 5 -177 25 -16 31 -16 108 0 99 20 226 66 226 81 0
6 -41 110 -90 230 -50 120 -100 247 -112 281 l-22 62 23 79 c15 50 23 107 24
153 l0 75 36 -44 c182 -224 486 -583 499 -587 20 -8 81 60 163 181 219 324
273 658 169 1044 -19 70 -95 240 -119 265 -8 8 -64 -25 -452 -270 -108 -67
-199 -123 -201 -123 -2 0 -2 38 0 84 4 83 4 85 -25 113 l-29 28 235 231 236
231 -50 36 c-248 180 -544 264 -835 236z m111 -271 l0 -23 9 23 c13 32 44 28
87 -12 33 -30 37 -40 37 -77 -2 -78 -11 -129 -28 -148 -9 -10 -16 -27 -16 -39
0 -28 -46 -62 -84 -62 -49 0 -81 21 -81 54 0 16 -8 34 -20 42 -11 8 -21 27
-21 42 -1 15 -5 48 -9 74 -10 60 7 104 49 129 44 27 76 25 77 -3z m73 -383 c8
-31 29 -41 124 -55 74 -12 97 -29 40 -31 -30 -1 -28 -2 17 -14 27 -8 55 -22
62 -31 24 -33 15 -127 -23 -241 -32 -95 -69 -183 -77 -183 -2 0 5 44 15 98 41
215 34 279 -36 324 -40 25 -45 37 -18 40 9 1 -10 4 -43 7 -52 5 -61 9 -77 36
-10 18 -15 40 -11 53 7 29 19 28 27 -3z m-128 -17 c-8 -41 -39 -68 -78 -68
-16 0 -27 -4 -23 -9 3 -6 -14 -23 -38 -40 -80 -55 -92 -115 -57 -286 11 -53
20 -109 20 -124 -1 -23 -4 -20 -25 20 -44 85 -88 253 -83 319 5 71 24 96 81
106 38 7 39 8 17 14 l-25 7 25 11 c14 6 51 16 84 22 62 10 86 23 86 46 0 8 5
14 11 14 8 0 9 -11 5 -32z m167 -92 c1 -5 -15 -15 -35 -22 -44 -15 -51 -2 -10
20 28 16 42 16 45 2z m-174 -9 c13 -16 5 -27 -15 -21 -8 2 -21 6 -30 9 -8 3
-12 9 -9 15 9 14 41 12 54 -3z m-36 -28 c39 -11 50 -29 17 -29 -24 0 -70 21
-70 32 0 10 7 10 53 -3z m247 6 c0 -3 -15 -13 -32 -21 l-33 -15 50 6 c48 6 49
6 32 -12 -9 -10 -34 -23 -55 -29 l-37 -12 37 -1 c20 -1 49 4 64 9 15 6 29 8
32 5 13 -13 -30 -38 -79 -45 l-54 -8 65 0 c87 0 88 -1 66 -17 -12 -9 -42 -15
-78 -15 -32 0 -58 -4 -58 -10 0 -14 100 -16 143 -4 9 3 17 1 17 -4 0 -18 -57
-33 -116 -30 l-59 3 0 95 0 95 30 6 c41 9 65 10 65 4z m-265 -39 c45 -12 50
-16 50 -42 0 -28 -1 -29 -51 -29 -31 1 -61 7 -78 18 -37 24 -24 39 19 21 19
-8 49 -14 67 -14 31 1 30 2 -16 18 -27 9 -51 23 -54 30 -5 15 0 15 63 -2z m-7
-84 c45 -3 62 -8 62 -18 0 -20 -108 -19 -138 2 -26 18 -30 40 -4 28 9 -4 45
-10 80 -12z m-10 -50 c50 -2 72 -7 69 -15 -6 -19 -111 -20 -147 -2 -32 16 -44
43 -12 29 9 -4 50 -10 90 -12z m72 -58 c0 -24 -123 -34 -161 -14 -35 19 -20
25 71 25 63 1 90 -3 90 -11z m0 -78 c-25 -76 -112 -112 -146 -61 -20 30 -14
41 14 24 16 -10 26 -10 51 0 16 7 35 19 41 26 9 11 1 13 -43 8 -47 -5 -57 -3
-77 17 -28 28 -24 31 25 19 30 -7 52 -6 85 4 25 8 49 11 54 6 4 -4 3 -23 -4
-43z m233 31 c52 3 54 2 31 -21 -18 -18 -85 -21 -116 -5 -35 19 -31 2 5 -20
38 -23 77 -27 95 -9 19 19 28 -1 11 -30 -18 -33 -47 -39 -88 -18 -34 18 -53
47 -57 89 -4 27 -3 28 34 20 20 -4 58 -7 85 -6z"/>
<path d="M2452 3353 c-18 -7 -33 -39 -26 -57 7 -19 45 -21 62 -4 27 27 -1 73
-36 61z"/>
<path d="M2548 3349 c-37 -21 -3 -81 38 -65 17 7 19 47 2 64 -14 14 -18 14
-40 1z"/>
<path d="M2506 3283 c-12 -13 -6 -53 9 -53 9 0 15 9 15 24 0 26 -12 40 -24 29z"/>
<path d="M2503 2313 c-18 -6 -16 -43 1 -43 16 0 27 22 18 37 -4 5 -13 8 -19 6z"/>
<path d="M2568 1640 c-5 -30 -7 -80 -7 -110 2 -51 2 -50 10 25 11 97 8 168 -3
85z"/>
</g>
</svg>
